<svg xmlns="http://www.w3.org/2000/svg" xmlns:xlink="http://www.w3.org/1999/xlink" version="1.1" width="50" height="50" viewBox="0 0 256 256" xml:space="preserve">
<g style="stroke: none; stroke-width: 0; stroke-dasharray: none; stroke-linecap: butt; stroke-linejoin: miter; stroke-miterlimit: 10; fill: none; fill-rule: nonzero; opacity: 1;" transform="translate(1.4065934065934016 1.4065934065934016) scale(2.81 2.81)">
	<path d="M 45 90 C 20.187 90 0 69.813 0 45 C 0 20.187 20.187 0 45 0 c 24.813 0 45 20.187 45 45 C 90 69.813 69.813 90 45 90 z M 45 4 C 22.393 4 4 22.393 4 45 s 18.393 41 41 41 s 41 -18.393 41 -41 S 67.607 4 45 4 z" style="stroke: none; stroke-width: 1; stroke-dasharray: none; stroke-linecap: butt; stroke-linejoin: miter; stroke-miterlimit: 10; fill: rgb(0,0,0); fill-rule: nonzero; opacity: 1;" transform=" matrix(1 0 0 1 0 0) " stroke-linecap="round"/>
    <path d="M 55.831 70.89 H 34.169 c -8.304 0 -15.06 -6.756 -15.06 -15.061 V 34.167 c 0 -8.304 6.756 -15.06 15.06 -15.06 h 21.662 c 8.305 0 15.061 6.756 15.061 15.06 v 21.662 C 70.892 64.134 64.136 70.89 55.831 70.89 z M 34.169 23.107 c -6.099 0 -11.06 4.961 -11.06 11.06 v 21.662 c 0 6.099 4.961 11.061 11.06 11.061 h 21.662 c 6.099 0 11.061 -4.962 11.061 -11.061 V 34.167 c 0 -6.099 -4.962 -11.06 -11.061 -11.06 H 34.169 z" style="stroke: none; stroke-width: 1; stroke-dasharray: none; stroke-linecap: butt; stroke-linejoin: miter; stroke-miterlimit: 10; fill: rgb(0,0,0); fill-rule: nonzero; opacity: 1;" transform=" matrix(1 0 0 1 0 0) " stroke-linecap="round"/>
    <path d="M 44.999 59.27 c -7.868 0 -14.269 -6.401 -14.269 -14.269 s 6.401 -14.269 14.269 -14.269 c 7.868 0 14.268 6.401 14.268 14.269 S 52.866 59.27 44.999 59.27 z M 44.999 34.732 c -5.663 0 -10.269 4.606 -10.269 10.269 c 0 5.663 4.606 10.269 10.269 10.269 c 5.662 0 10.268 -4.606 10.268 -10.269 C 55.267 39.338 50.66 34.732 44.999 34.732 z" style="stroke: none; stroke-width: 1; stroke-dasharray: none; stroke-linecap: butt; stroke-linejoin: miter; stroke-miterlimit: 10; fill: rgb(0,0,0); fill-rule: nonzero; opacity: 1;" transform=" matrix(1 0 0 1 0 0) " stroke-linecap="round"/>
    <circle cx="58.706" cy="30.336" r="2.866" style="stroke: none; stroke-width: 1; stroke-dasharray: none; stroke-linecap: butt; stroke-linejoin: miter; stroke-miterlimit: 10; fill: rgb(0,0,0); fill-rule: nonzero; opacity: 1;" transform="  matrix(1 0 0 1 0 0) "/>
</g>
</svg>
